<svg xmlns="http://www.w3.org/2000/svg" xmlns:xlink="http://www.w3.org/1999/xlink" version="1.0" x="0px" y="0px" viewBox="0 0 100 125" enable-background="new 0 0 100 100" xml:space="preserve"><path d="M18.801,76.6c1,1,2,1.4,3.398,1.4H57.9c2.199,0,4-1.8,4-4v-7.3l7.5-7.5c0.299-0.3,0.5-0.9,0.5-1.4s-0.201-1-0.5-1.399  c0.699-0.7,1.1-1.601,1.1-2.7v-0.4H71c1,0,1.9-0.399,2.6-1.1l9.9-9.9c0.4-0.399,0.6-0.899,0.6-1.399s-0.199-1-0.6-1.4l-1.4-1.4  c-0.4-0.399-0.9-0.6-1.4-0.6s-1,0.2-1.398,0.6L65.1,52.2l-1.4-1.4c0.701-0.7,1.102-1.8,1.102-2.8c0-0.6-0.102-1.2-0.4-1.8  c0.9-0.101,1.5-0.5,2.1-1.101L79.301,32.4c0.299-0.4,0.5-0.9,0.5-1.4s-0.201-1-0.5-1.4l-1.5-1.399c-0.4-0.4-0.9-0.601-1.4-0.601  s-1,0.2-1.4,0.601L58,45.1L56.6,43.7c0.701-0.7,1.1-1.7,1.1-2.7c0-0.6-0.1-1.2-0.398-1.8c0.898-0.2,1.5-0.5,2.199-1.2l15.199-15.2  c0.4-0.399,0.602-0.899,0.602-1.399s-0.201-1-0.602-1.4l-1.398-1.4C72.9,18.2,72.4,18,71.9,18s-1,0.2-1.4,0.6L51,38  c-0.4-0.3-0.9-0.5-1.4-0.5s-1,0.2-1.4,0.6L17,69.3c-0.801,0.8-1.1,1.7-1.1,2.7s0.4,2,1.1,2.7L18.801,76.6z M17.9,72  c0-0.5,0.199-1,0.6-1.4l31.1-31.1L67.9,57.8L49.699,76H22.1C21.4,76,20.9,75.8,20.4,75.3L18.5,73.4C18.1,73,17.9,72.5,17.9,72  L17.9,72z M71.9,20l1.4,1.4L58,36.6C57.6,37,57.1,37.2,56.6,37.2s-1-0.2-1.4-0.601L71.9,20z M52.6,76l7.301-7.3V74c0,1.1-0.9,2-2,2  H52.6z M76.4,29.6l1.4,1.4L65.1,43.7c-0.4,0.399-0.9,0.6-1.4,0.6c-0.5,0-1-0.2-1.398-0.6L76.4,29.6z M80.699,39.5l1.4,1.4  l-9.9,9.899c-0.398,0.4-0.898,0.5-1.398,0.5s-1.102-0.1-1.4-0.5L80.699,39.5z M60.9,45.1l1.4,1.4c0.398,0.4,0.6,1,0.6,1.5  s-0.201,1-0.6,1.4L59.5,46.5L60.9,45.1z M53.801,38l1.398,1.5c0.4,0.4,0.602,0.9,0.602,1.4s-0.201,1-0.602,1.399L52.4,39.5  L53.801,38z M67.9,52.2c0.4,0.399,0.6,0.899,0.6,1.399s-0.199,1-0.6,1.4l-1.4-1.4L67.9,52.2z M23.9,81c0,0.6,0.4,1,1,1h3  c0.6,0,1-0.4,1-1s-0.4-1-1-1h-3C24.301,80,23.9,80.4,23.9,81L23.9,81z M52.9,81c0,0.6,0.4,1,1,1h3c0.6,0,1-0.4,1-1s-0.4-1-1-1h-3  C53.301,80,52.9,80.4,52.9,81z"/><text x="0" y="115" fill="#000000" font-size="5px" font-weight="bold" font-family="'Helvetica Neue', Helvetica, Arial-Unicode, Arial, Sans-serif">Created by Yorlmar Campos</text><text x="0" y="120" fill="#000000" font-size="5px" font-weight="bold" font-family="'Helvetica Neue', Helvetica, Arial-Unicode, Arial, Sans-serif">from the Noun Project</text></svg>